#!OML:ASF C:\Vicon Data\Big\jianyuan-13\jianyuan\Session 1\Capture.male.ASF
:FULLY-SPECIFIED
:DEGREES
181
root -6.049506 17.403638 -5.947325 7.253357 3.216195 1.980830
lowerback -7.339671 0.518749 -3.858299 
upperback 2.888224 1.192717 -0.873081 
thorax 7.102077 0.449518 1.412244 
lowerneck -1.520210 -2.555407 3.701860 
upperneck 11.392862 -2.874733 -3.185007 
head 3.881336 -1.215341 -1.809018 
rclavicle 0.000000 0.000000 
rhumerus -33.440148 -11.601725 -84.018643 
rradius 40.964169 
rwrist 21.126660 
rhand -18.715349 -18.120267 
rfingers 0.000000 
rthumb 7.579869 -47.964366 
lclavicle 0.000000 0.000000 
lhumerus -30.982514 35.259363 75.199065 
lradius 24.709302 
lwrist -61.875584 
lhand -20.052313 1.007537 
lfingers 0.000000 
lthumb 6.289281 30.894160 
rfemur -51.135156 -9.345870 14.116730 
rtibia 99.558482 
rfoot -2.792255 5.423822 
rtoes -39.272462 
lfemur -25.241372 -3.314155 -25.377445 
ltibia 27.988157 
lfoot -10.728780 0.346319 
ltoes -19.561746 
182
root -6.027640 17.426293 -5.860784 6.971657 3.280217 1.803586
lowerback -7.256487 0.445973 -3.696330 
upperback 2.867867 1.062142 -0.761566 
thorax 7.038788 0.389601 1.419810 
lowerneck -1.476267 -2.523600 3.609066 
upperneck 11.351073 -2.824754 -3.209639 
head 3.860655 -1.196200 -1.797259 
rclavicle 0.000000 0.000000 
rhumerus -33.786675 -11.453241 -83.829559 
rradius 40.922793 
rwrist 20.846611 
rhand -18.882289 -18.112873 
rfingers 0.000000 
rthumb 7.418798 -47.962826 
lclavicle 0.000000 0.000000 
lhumerus -30.147154 35.153804 75.895705 
lradius 24.836268 
lwrist -61.399736 
lhand -20.267736 0.922309 
lfingers 0.000000 
lthumb 6.081318 30.815032 
rfemur -52.733409 -9.475027 14.323375 
rtibia 100.382871 
rfoot -3.034410 5.446234 
rtoes -38.738306 
lfemur -24.318961 -3.612564 -25.235619 
ltibia 27.480777 
lfoot -11.036542 0.576476 
ltoes -19.580776 
183
root -6.006754 17.446652 -5.774044 6.680137 3.331406 1.747421
lowerback -7.181962 0.364965 -3.642370 
upperback 2.878576 0.939928 -0.702496 
thorax 7.012979 0.330442 1.434640 
lowerneck -1.457592 -2.465385 3.630745 
upperneck 11.273729 -2.739197 -3.343061 
head 3.831663 -1.160960 -1.841461 
rclavicle 0.000000 0.000000 
rhumerus -34.048949 -11.532953 -83.631325 
rradius 40.875781 
rwrist 20.824241 
rhand -18.880346 -18.266649 
rfingers 0.000000 
rthumb 7.420619 -48.116557 
lclavicle 0.000000 0.000000 
lhumerus -29.102234 34.533472 76.903355 
lradius 25.170595 
lwrist -60.446314 
lhand -20.184987 1.191215 
lfingers 0.000000 
lthumb 6.161224 31.081643 
rfemur -54.384598 -9.648688 14.428084 
rtibia 101.193099 
rfoot -3.075112 5.506867 
rtoes -38.615188 
lfemur -23.383231 -3.913123 -25.230988 
ltibia 26.970546 
lfoot -11.314354 0.835083 
ltoes -19.380268 
184
root -5.984507 17.467027 -5.686365 6.503793 3.373164 1.517475
lowerback -7.249341 0.267931 -3.388551 
upperback 2.877221 0.778823 -0.628716 
thorax 7.059499 0.258627 1.349203 
lowerneck -1.617746 -2.365584 3.691804 
upperneck 11.325291 -2.602072 -3.479039 
head 3.885171 -1.098373 -1.898611 
rclavicle 0.000000 0.000000 
rhumerus -34.201935 -11.944620 -83.368514 
rradius 40.536209 
rwrist 21.616957 
rhand -18.772814 -18.047649 
rfingers 0.000000 
rthumb 7.524459 -47.893799 
lclavicle 0.000000 0.000000 
lhumerus -27.933883 33.889493 77.899950 
lradius 25.374314 
lwrist -58.860058 
lhand -20.501314 1.377077 
lfingers 0.000000 
lthumb 5.855855 31.276127 
rfemur -56.239485 -9.771697 14.781653 
rtibia 101.991975 
rfoot -3.260933 5.449528 
rtoes -38.678617 
lfemur -22.560781 -4.162341 -25.034960 
ltibia 26.405683 
lfoot -11.544352 1.010268 
ltoes -18.841468 
185
root -5.964257 17.487951 -5.598137 6.172400 3.425656 1.448161
lowerback -7.111414 0.196162 -3.370381 
upperback 2.869737 0.666463 -0.531470 
thorax 6.976209 0.202570 1.424958 
lowerneck -1.576069 -2.319463 3.681187 
upperneck 11.270516 -2.536702 -3.520746 
head 3.860195 -1.069186 -1.906637 
rclavicle 0.000000 0.000000 
rhumerus -34.535881 -11.720345 -83.164983 
rradius 40.506398 
rwrist 21.407138 
rhand -18.772931 -18.243126 
rfingers 0.000000 
rthumb 7.524290 -48.089373 
lclavicle 0.000000 0.000000 
lhumerus -27.045290 33.507352 78.752723 
lradius 25.708442 
lwrist -58.264838 
lhand -20.578988 1.534891 
lfingers 0.000000 
lthumb 5.780792 31.436018 
rfemur -57.885157 -9.899345 14.897225 
rtibia 102.793258 
rfoot -3.466060 5.380328 
rtoes -38.572116 
lfemur -21.550175 -4.393982 -25.040759 
ltibia 25.843257 
lfoot -11.763778 1.173332 
ltoes -18.018606 
186
root -5.945880 17.512006 -5.505974 5.889706 3.481809 1.287704
lowerback -7.153222 0.125251 -3.193165 
upperback 2.914171 0.554303 -0.503086 
thorax 7.053725 0.152877 1.341108 
lowerneck -1.661952 -2.284182 3.782434 
upperneck 11.281498 -2.489668 -3.631360 
head 3.881285 -1.048197 -1.962975 
rclavicle 0.000000 0.000000 
rhumerus -34.671789 -11.976017 -83.014059 
rradius 40.190659 
rwrist 21.533205 
rhand -18.889011 -18.149484 
rfingers 0.000000 
rthumb 7.412271 -47.999652 
lclavicle 0.000000 0.000000 
lhumerus -25.903426 32.683903 79.677536 
lradius 26.038499 
lwrist -57.152294 
lhand -20.577516 1.566151 
lfingers 0.000000 
lthumb 5.782284 31.467281 
rfemur -59.574718 -10.012261 15.174613 
rtibia 103.523803 
rfoot -3.717404 5.196278 
rtoes -37.996620 
lfemur -20.565265 -4.580113 -24.935566 
ltibia 25.239627 
lfoot -11.893734 1.284732 
ltoes -17.476139 
187
root -5.928621 17.531825 -5.414366 5.626008 3.625751 1.132625
lowerback -7.113135 -0.001636 -3.142047 
upperback 2.886907 0.363047 -0.349210 
thorax 7.009484 0.056765 1.448442 
lowerneck -1.586627 -2.188099 3.752290 
upperneck 11.241285 -2.334319 -3.823656 
head 3.858159 -0.979332 -2.015108 
rclavicle 0.000000 0.000000 
rhumerus -34.786043 -12.721808 -82.453066 
rradius 39.593837 
rwrist 22.192972 
rhand -18.815899 -17.793080 
rfingers 0.000000 
rthumb 7.482822 -47.640666 
lclavicle 0.000000 0.000000 
lhumerus -24.919161 31.828504 80.706799 
lradius 26.529897 
lwrist -55.564895 
lhand -20.669958 1.509710 
lfingers 0.000000 
lthumb 5.692973 31.413198 
rfemur -61.365050 -10.187029 15.484939 
rtibia 104.250983 
rfoot -3.896339 4.914349 
rtoes -37.495759 
lfemur -19.623644 -4.853097 -24.821135 
ltibia 24.644607 
lfoot -12.091631 1.360534 
ltoes -17.153128 
188
root -5.907963 17.553361 -5.315284 5.309117 3.714557 1.008670
lowerback -7.128839 -0.084872 -2.996100 
upperback 2.928932 0.235719 -0.310098 
thorax 7.069259 -0.001514 1.390973 
lowerneck -1.647432 -2.143658 3.829862 
upperneck 11.227727 -2.280441 -3.872863 
head 3.866906 -0.953812 -2.045183 
rclavicle 0.000000 0.000000 
rhumerus -35.144600 -12.127181 -82.509523 
rradius 39.800066 
rwrist 21.819474 
rhand -18.603292 -18.235314 
rfingers 0.000000 
rthumb 7.688031 -48.075573 
lclavicle 0.000000 0.000000 
lhumerus -23.786928 30.818262 81.722117 
lradius 27.039985 
lwrist -53.885572 
lhand -20.721148 1.590574 
lfingers 0.000000 
lthumb 5.643586 31.495467 
rfemur -63.097625 -10.291943 15.711353 
rtibia 104.926788 
rfoot -4.270187 4.687467 
rtoes -37.805572 
lfemur -18.551087 -5.024385 -24.783971 
ltibia 23.977034 
lfoot -12.224526 1.459198 
ltoes -16.962675 
189
root -5.889392 17.575960 -5.214504 4.860974 3.867194 0.924750
lowerback -6.983909 -0.176206 -2.950848 
upperback 2.983959 0.101286 -0.241340 
thorax 7.050326 -0.067011 1.419846 
lowerneck -1.656650 -2.109499 3.754328 
upperneck 11.214533 -2.236156 -3.837659 
head 3.866723 -0.934476 -2.018049 
rclavicle 0.000000 0.000000 
rhumerus -35.322678 -12.565743 -82.139888 
rradius 39.453916 
rwrist 22.156412 
rhand -18.437144 -18.231933 
rfingers 0.000000 
rthumb 7.848461 -48.066245 
lclavicle 0.000000 0.000000 
lhumerus -22.711378 29.636822 82.749054 
lradius 27.627887 
lwrist -52.347790 
lhand -20.675205 1.692402 
lfingers 0.000000 
lthumb 5.687892 31.596053 
rfemur -64.680097 -10.409942 15.874267 
rtibia 105.525208 
rfoot -4.535068 4.388470 
rtoes -37.406025 
lfemur -17.268213 -5.220910 -24.802220 
ltibia 23.206142 
lfoot -12.241833 1.584734 
ltoes -18.003018 
190
root -5.869588 17.599322 -5.109638 4.504384 3.992597 0.736023
lowerback -6.946520 -0.218488 -2.744123 
upperback 3.004785 0.017188 -0.164395 
thorax 7.053916 -0.101479 1.373412 
lowerneck -1.688959 -2.094315 3.729951 
upperneck 11.226989 -2.210692 -3.881787 
head 3.878521 -0.924867 -2.028736 
rclavicle 0.000000 0.000000 
rhumerus -35.529030 -13.337059 -81.639207 
rradius 38.930636 
rwrist 22.773553 
rhand -18.461448 -18.001348 
rfingers 0.000000 
rthumb 7.824989 -47.836558 
lclavicle 0.000000 0.000000 
lhumerus -21.735714 28.211304 83.761775 
lradius 28.337643 
lwrist -50.734168 
lhand -20.898706 1.733358 
lfingers 0.000000 
lthumb 5.472182 31.642699 
rfemur -66.452870 -10.444296 16.175920 
rtibia 106.122952 
rfoot -4.740898 4.216137 
rtoes -37.196427 
lfemur -16.107894 -5.476830 -24.694081 
ltibia 22.476977 
lfoot -12.494684 1.746407 
ltoes -17.871317 
